<svg width="25" height="25" viewBox="0 0 25 25" fill="none" xmlns="http://www.w3.org/2000/svg">
<rect width="25" height="25" rx="12.5" fill="#3F6AC9"/>
<path d="M8.996 18V16.56L12.9 12.576C13.8493 11.6267 14.324 10.8053 14.324 10.112C14.324 9.568 14.1587 9.14667 13.828 8.848C13.508 8.53867 13.0973 8.384 12.596 8.384C11.6573 8.384 10.964 8.848 10.516 9.776L8.964 8.864C9.316 8.11733 9.812 7.552 10.452 7.168C11.092 6.784 11.8013 6.592 12.58 6.592C13.5613 6.592 14.404 6.90133 15.108 7.52C15.812 8.13867 16.164 8.98133 16.164 10.048C16.164 11.1893 15.5293 12.4053 14.26 13.696L11.732 16.224H16.372V18H8.996Z" fill="#F4F1EA"/>
</svg>
