<svg width="25" height="25" viewBox="0 0 25 25" fill="none" xmlns="http://www.w3.org/2000/svg">
<rect width="25" height="25" rx="12.5" fill="#3F6AC9"/>
<path d="M13.844 11.376C14.6547 11.568 15.3107 11.9467 15.812 12.512C16.324 13.0667 16.58 13.7653 16.58 14.608C16.58 15.728 16.2013 16.608 15.444 17.248C14.6867 17.888 13.7587 18.208 12.66 18.208C11.8067 18.208 11.0387 18.0107 10.356 17.616C9.684 17.2213 9.19867 16.6453 8.9 15.888L10.468 14.976C10.7987 15.936 11.5293 16.416 12.66 16.416C13.3 16.416 13.8067 16.256 14.18 15.936C14.5533 15.6053 14.74 15.1627 14.74 14.608C14.74 14.0533 14.5533 13.616 14.18 13.296C13.8067 12.976 13.3 12.816 12.66 12.816H12.244L11.508 11.712L13.924 8.528H9.236V6.8H16.116V8.368L13.844 11.376Z" fill="#F4F1EA"/>
</svg>
