<svg width="30" height="30" viewBox="0 0 30 30" fill="none" xmlns="http://www.w3.org/2000/svg">
<g filter="url(#filter0_d_934_5731)">
<path d="M10.422 20.8509C11.2427 18.8145 12.914 17.25 15 17.25C17.086 17.25 18.7574 18.8145 19.578 20.8509C19.8395 21.4997 19.7863 22.1855 19.5304 22.7225C19.2833 23.2409 18.768 23.75 18.0412 23.75H11.9588C11.2321 23.75 10.7167 23.2409 10.4697 22.7225C10.2137 22.1855 10.1606 21.4997 10.422 20.8509Z" fill="#3F6AC9"/>
<path d="M23.9964 7.05401C23.742 7.01866 23.333 7.00001 22.7023 7.00001H21.5001C20.9479 7.00001 20.5001 6.5523 20.5001 6.00001C20.5001 5.44773 20.9479 5.00001 21.5001 5.00001H22.7642C23.3111 4.99993 23.8211 4.99985 24.2301 5.0567C24.6764 5.11874 25.1986 5.27154 25.5863 5.73866C25.9803 6.21324 26.0258 6.75825 25.9902 7.21074C25.9584 7.61617 25.8318 8.16595 25.714 8.67808L25.3232 10.3772C24.6384 13.3551 22.143 15.5403 19.1483 15.989C18.6021 16.0708 18.093 15.6944 18.0112 15.1482C17.9293 14.602 18.3058 14.0929 18.852 14.0111C21.079 13.6774 22.8836 12.0621 23.3741 9.92897L23.7648 8.22985C23.9023 7.63193 23.9776 7.29288 23.9964 7.05401Z" fill="#3F6AC9"/>
<path d="M6.00364 7.05401C6.25797 7.01866 6.66705 7.00001 7.29767 7.00001H8.49988C9.05217 7.00001 9.49988 6.5523 9.49988 6.00001C9.49988 5.44773 9.05217 5.00001 8.49988 5.00001H7.23583C6.68894 4.99993 6.17891 4.99985 5.76987 5.0567C5.32358 5.11874 4.80144 5.27154 4.41368 5.73866C4.01973 6.21324 3.97423 6.75825 4.0098 7.21074C4.04166 7.61617 4.15383 8.1035 4.2717 8.61563L4.6768 10.3772C5.3616 13.3551 7.85699 15.5403 10.8517 15.989C11.3979 16.0708 11.907 15.6944 11.9888 15.1482C12.0707 14.602 11.6942 14.0929 11.1481 14.0111C8.92102 13.6774 7.11646 12.0621 6.62592 9.92897L6.23519 8.22985C6.0977 7.63193 6.02242 7.29288 6.00364 7.05401Z" fill="#3F6AC9"/>
<path d="M12.1266 2.25H12.1865H17.8733C18.7264 2.24995 19.456 2.24991 20.0386 2.34459C20.6731 2.4477 21.2324 2.67692 21.6653 3.20167C22.0832 3.70817 22.2266 4.2765 22.2472 4.90676C22.2662 5.48832 22.1811 6.19486 22.081 7.02493C21.6907 10.2642 20.8355 13.1753 19.6635 15.2451C18.5126 17.2775 16.9255 18.75 14.9999 18.75C13.0744 18.75 11.4873 17.2775 10.3364 15.2451C9.16438 13.1753 8.30917 10.2642 7.91887 7.02493C7.81881 6.19486 7.73364 5.48832 7.75268 4.90676C7.77332 4.2765 7.91671 3.70817 8.33459 3.20167C8.76752 2.67692 9.32676 2.4477 9.96126 2.34459C10.5439 2.24991 11.2734 2.24995 12.1266 2.25Z" fill="#3F6AC9"/>
</g>
<defs>
<filter id="filter0_d_934_5731" x="-1" y="-1" width="32" height="32" filterUnits="userSpaceOnUse" color-interpolation-filters="sRGB">
<feFlood flood-opacity="0" result="BackgroundImageFix"/>
<feColorMatrix in="SourceAlpha" type="matrix" values="0 0 0 0 0 0 0 0 0 0 0 0 0 0 0 0 0 0 127 0" result="hardAlpha"/>
<feOffset dy="2"/>
<feGaussianBlur stdDeviation="2"/>
<feComposite in2="hardAlpha" operator="out"/>
<feColorMatrix type="matrix" values="0 0 0 0 0 0 0 0 0 0 0 0 0 0 0 0 0 0 0.25 0"/>
<feBlend mode="normal" in2="BackgroundImageFix" result="effect1_dropShadow_934_5731"/>
<feBlend mode="normal" in="SourceGraphic" in2="effect1_dropShadow_934_5731" result="shape"/>
</filter>
</defs>
</svg>
