<svg width="147" height="138" viewBox="0 0 147 138" fill="none" xmlns="http://www.w3.org/2000/svg">
<g filter="url(#filter0_dd_910_8874)">
<path d="M108 69C108 77.7273 105.073 86.2024 99.6866 93.0693C94.3005 99.9362 86.7667 104.798 78.2907 106.877C69.8147 108.956 60.8863 108.132 52.9339 104.537C44.9816 100.942 38.4649 94.7832 34.4265 87.0465C30.3882 79.3097 29.0615 70.4421 30.6587 61.8622C32.256 53.2823 36.6849 45.4861 43.2369 39.721C49.7888 33.9558 58.0852 30.5548 66.7985 30.0622C75.5119 29.5695 84.1387 32.0137 91.2987 37.0036L89.0689 40.2033C82.6248 35.7123 74.8607 33.5126 67.0187 33.956C59.1767 34.3993 51.71 37.4602 45.8132 42.6489C39.9164 47.8375 35.9304 54.8541 34.4929 62.576C33.0553 70.2979 34.2493 78.2788 37.8839 85.2418C41.5184 92.2049 47.3834 97.7476 54.5405 100.983C61.6976 104.219 69.7332 104.961 77.3616 103.089C84.9901 101.218 91.7704 96.8426 96.618 90.6624C101.465 84.4821 104.1 76.8545 104.1 69H108Z" fill="#3F6AC9"/>
<path d="M90.946 36.7607C96.6052 40.613 101.151 45.8871 104.125 52.0529C107.1 58.2187 108.4 65.059 107.893 71.8861L104.004 71.5975C104.46 65.4531 103.29 59.2969 100.613 53.7476C97.9355 48.1984 93.8447 43.4517 88.7514 39.9846L90.946 36.7607Z" fill="#3F6AC9"/>
</g>
<g filter="url(#filter1_di_910_8874)">
<circle cx="68.6" cy="68.6" r="28.6" fill="#F1EDE7"/>
</g>
<path d="M64.422 75.3509C65.2427 73.3145 66.914 71.75 69 71.75C71.086 71.75 72.7574 73.3145 73.578 75.3509C73.8395 75.9997 73.7863 76.6855 73.5304 77.2225C73.2833 77.7409 72.768 78.25 72.0412 78.25H65.9588C65.2321 78.25 64.7167 77.7409 64.4697 77.2225C64.2137 76.6855 64.1606 75.9997 64.422 75.3509Z" fill="#3F6AC9"/>
<path d="M77.9964 61.554C77.742 61.5187 77.333 61.5 76.7023 61.5H75.5001C74.9479 61.5 74.5001 61.0523 74.5001 60.5C74.5001 59.9477 74.9479 59.5 75.5001 59.5H76.7642C77.3111 59.4999 77.8211 59.4998 78.2301 59.5567C78.6764 59.6187 79.1986 59.7715 79.5863 60.2387C79.9803 60.7132 80.0258 61.2582 79.9902 61.7107C79.9584 62.1162 79.8318 62.6659 79.714 63.1781L79.3232 64.8772C78.6384 67.8551 76.143 70.0403 73.1483 70.489C72.6021 70.5708 72.093 70.1944 72.0112 69.6482C71.9293 69.102 72.3058 68.5929 72.852 68.5111C75.079 68.1774 76.8836 66.5621 77.3741 64.429L77.7648 62.7298C77.9023 62.1319 77.9776 61.7929 77.9964 61.554Z" fill="#3F6AC9"/>
<path d="M60.0036 61.554C60.2579 61.5187 60.667 61.5 61.2976 61.5H62.4999C63.0521 61.5 63.4999 61.0523 63.4999 60.5C63.4999 59.9477 63.0521 59.5 62.4999 59.5H61.2358C60.6889 59.4999 60.1789 59.4998 59.7698 59.5567C59.3236 59.6187 58.8014 59.7715 58.4137 60.2387C58.0197 60.7132 57.9742 61.2582 58.0098 61.7107C58.0416 62.1162 58.1538 62.6035 58.2717 63.1156L58.6768 64.8772C59.3616 67.8551 61.857 70.0403 64.8517 70.489C65.3979 70.5708 65.907 70.1944 65.9888 69.6482C66.0707 69.102 65.6942 68.5929 65.148 68.5111C62.921 68.1774 61.1164 66.5621 60.6259 64.429L60.2352 62.7298C60.0977 62.1319 60.0224 61.7929 60.0036 61.554Z" fill="#3F6AC9"/>
<path d="M66.1266 56.75H66.1865H71.8733C72.7264 56.75 73.456 56.7499 74.0386 56.8446C74.6731 56.9477 75.2324 57.1769 75.6653 57.7017C76.0832 58.2082 76.2266 58.7765 76.2472 59.4068C76.2662 59.9883 76.1811 60.6949 76.081 61.5249C75.6907 64.7642 74.8355 67.6753 73.6635 69.7451C72.5126 71.7775 70.9255 73.25 68.9999 73.25C67.0744 73.25 65.4873 71.7775 64.3364 69.7451C63.1644 67.6753 62.3092 64.7642 61.9189 61.5249C61.8188 60.6949 61.7336 59.9883 61.7527 59.4068C61.7733 58.7765 61.9167 58.2082 62.3346 57.7017C62.7675 57.1769 63.3268 56.9477 63.9613 56.8446C64.5439 56.7499 65.2734 56.75 66.1266 56.75Z" fill="#3F6AC9"/>
<defs>
<filter id="filter0_dd_910_8874" x="-9.00005" y="-10.56" width="156" height="156" filterUnits="userSpaceOnUse" color-interpolation-filters="sRGB">
<feFlood flood-opacity="0" result="BackgroundImageFix"/>
<feColorMatrix in="SourceAlpha" type="matrix" values="0 0 0 0 0 0 0 0 0 0 0 0 0 0 0 0 0 0 127 0" result="hardAlpha"/>
<feOffset dy="3.12"/>
<feGaussianBlur stdDeviation="3.9"/>
<feComposite in2="hardAlpha" operator="out"/>
<feColorMatrix type="matrix" values="0 0 0 0 0 0 0 0 0 0 0 0 0 0 0 0 0 0 0.2 0"/>
<feBlend mode="normal" in2="BackgroundImageFix" result="effect1_dropShadow_910_8874"/>
<feColorMatrix in="SourceAlpha" type="matrix" values="0 0 0 0 0 0 0 0 0 0 0 0 0 0 0 0 0 0 127 0" result="hardAlpha"/>
<feOffset dy="-1.56"/>
<feGaussianBlur stdDeviation="19.5"/>
<feComposite in2="hardAlpha" operator="out"/>
<feColorMatrix type="matrix" values="0 0 0 0 0 0 0 0 0 0 0 0 0 0 0 0 0 0 0.2 0"/>
<feBlend mode="normal" in2="effect1_dropShadow_910_8874" result="effect2_dropShadow_910_8874"/>
<feBlend mode="normal" in="SourceGraphic" in2="effect2_dropShadow_910_8874" result="shape"/>
</filter>
<filter id="filter1_di_910_8874" x="32.2" y="35.32" width="72.8" height="72.8" filterUnits="userSpaceOnUse" color-interpolation-filters="sRGB">
<feFlood flood-opacity="0" result="BackgroundImageFix"/>
<feColorMatrix in="SourceAlpha" type="matrix" values="0 0 0 0 0 0 0 0 0 0 0 0 0 0 0 0 0 0 127 0" result="hardAlpha"/>
<feOffset dy="3.12"/>
<feGaussianBlur stdDeviation="3.9"/>
<feComposite in2="hardAlpha" operator="out"/>
<feColorMatrix type="matrix" values="0 0 0 0 0 0 0 0 0 0 0 0 0 0 0 0 0 0 0.2 0"/>
<feBlend mode="normal" in2="BackgroundImageFix" result="effect1_dropShadow_910_8874"/>
<feBlend mode="normal" in="SourceGraphic" in2="effect1_dropShadow_910_8874" result="shape"/>
<feColorMatrix in="SourceAlpha" type="matrix" values="0 0 0 0 0 0 0 0 0 0 0 0 0 0 0 0 0 0 127 0" result="hardAlpha"/>
<feOffset dy="-3.12"/>
<feGaussianBlur stdDeviation="3.9"/>
<feComposite in2="hardAlpha" operator="arithmetic" k2="-1" k3="1"/>
<feColorMatrix type="matrix" values="0 0 0 0 0 0 0 0 0 0 0 0 0 0 0 0 0 0 0.1 0"/>
<feBlend mode="normal" in2="shape" result="effect2_innerShadow_910_8874"/>
</filter>
</defs>
</svg>
