<svg width="28" height="36" viewBox="0 0 28 36" fill="none" xmlns="http://www.w3.org/2000/svg">
<path d="M13.8657 0.195564C13.0759 0.389275 13.0461 0.508482 13.0461 3.69726C13.0461 6.45391 13.061 6.66253 13.3442 6.94564C13.7316 7.33306 14.5362 7.33306 14.9982 6.96054C15.3558 6.67743 15.3558 6.64763 15.3558 3.75686C15.3558 1.04491 15.3409 0.821399 15.0578 0.553184C14.715 0.225366 14.2829 0.106159 13.8657 0.195564Z" fill="#3F6AC9"/>
<path d="M17.8294 5.2171C17.5761 8.19727 17.5314 8.43568 17.0993 8.838C16.7417 9.16582 16.6523 9.18073 14.1787 9.18073C12.7781 9.18073 11.4817 9.13602 11.3029 9.09132C10.677 8.92741 10.5131 8.42078 10.2896 5.81314C10.1704 4.44226 10.0363 3.2949 10.0065 3.26509C9.9767 3.22039 8.51642 3.3992 6.75812 3.65251C4.21008 4.03993 3.42033 4.20384 2.7796 4.53166C1.81104 5.00849 1.0809 5.97705 0.842489 7.09461C0.589175 8.25687 0.618976 27.9111 0.87229 28.4028C0.976596 28.6114 2.7945 30.3697 4.92532 32.3068C7.93529 35.0635 8.88894 35.8532 9.18696 35.8532C9.41047 35.8532 9.63398 35.7489 9.67868 35.6148C9.81279 35.2721 9.78299 19.4176 9.64888 19.209C9.58928 19.1047 8.59092 18.4043 7.44356 17.6444L5.37234 16.2586L5.32764 14.7983C5.29784 14.0086 5.32764 13.353 5.38724 13.353C5.44685 13.353 6.95183 14.1576 8.75483 15.156L12.0032 16.9441L12.0181 19.06C12.0181 20.2222 12.0628 21.6527 12.1224 22.2339C12.2267 23.2024 12.2863 23.3514 12.9718 24.2008C13.985 25.4524 14.1489 25.4822 14.9685 24.5882C16.2052 23.2322 16.1754 23.3216 16.1754 20.0434C16.1754 17.7636 16.2202 17.0782 16.3841 16.9441C16.5778 16.7801 22.7318 13.353 22.8361 13.353C22.8659 13.353 22.8808 14.0086 22.8808 14.8132V16.2884L20.7351 17.7189C18.9917 18.8663 18.5894 19.2239 18.5149 19.5666C18.3808 20.2222 18.4404 35.138 18.5745 35.5105C18.8278 36.1959 19.3344 35.9426 21.2715 34.1694C22.2848 33.2605 23.7153 31.9641 24.4454 31.3085C25.1756 30.6528 26.159 29.7588 26.6358 29.3118L27.5001 28.5071V17.853C27.5001 10.1195 27.4554 7.04991 27.3213 6.61778C27.0978 5.84294 26.1739 4.81478 25.3842 4.44226C24.9967 4.26345 23.6706 3.99523 22.0613 3.74192C20.5861 3.53331 19.0662 3.2949 18.6937 3.23529L17.9934 3.11609L17.8294 5.2171ZM9.08265 6.00685C9.23166 8.06316 9.42537 8.95721 9.87239 9.47874C10.5727 10.3132 10.826 10.3728 14.0148 10.3728C17.2185 10.3728 17.4569 10.3281 18.1722 9.47874C18.6639 8.88271 18.8129 8.27177 18.947 6.23036C19.0066 5.1575 19.1109 4.56147 19.2152 4.56147C19.5728 4.56147 24.356 5.30651 24.6093 5.41081C25.1607 5.60452 25.7418 6.14095 26.0249 6.67738C26.2931 7.19891 26.308 7.70554 26.308 17.4805C26.308 23.113 26.2484 27.8068 26.1888 27.8962C26.01 28.1793 19.9901 33.6181 19.8709 33.6181C19.7964 33.6181 19.7516 30.5336 19.7516 26.7637V19.9093L21.808 18.5533C22.9255 17.8083 23.9388 17.0931 24.0431 16.959C24.2666 16.6609 24.2964 12.2801 24.0729 11.848C23.9835 11.699 23.7749 11.5649 23.6259 11.5649C23.313 11.5649 15.7135 15.7222 15.2516 16.1394C15.0132 16.348 14.9834 16.7056 14.9834 19.3878C14.9834 22.2637 14.9685 22.4276 14.6556 22.8895C14.2085 23.5302 14.0744 23.56 13.7168 23.0683C13.4486 22.6958 13.4188 22.3978 13.3741 19.5219C13.3294 16.7801 13.2996 16.3331 13.0761 16.1394C12.644 15.7669 4.95512 11.5649 4.6869 11.5649C4.16537 11.5649 4.09087 11.9076 4.13557 14.4854L4.18028 17.0037L6.11738 18.3149C7.19024 19.0302 8.1737 19.7156 8.32271 19.8348C8.56112 20.0434 8.57602 20.565 8.57602 26.8382C8.57602 31.4426 8.53132 33.6181 8.42701 33.6181C8.30781 33.6181 7.16044 32.6644 6.63891 32.128C6.59421 32.0833 5.55115 31.1297 4.31438 30.0121L2.06436 27.9707L1.97495 21.1461C1.82594 11.4755 1.84084 8.00356 2.03456 7.31812C2.25807 6.52838 2.7796 5.85784 3.43523 5.54492C3.85246 5.33631 7.57767 4.66577 8.73993 4.57637C8.94854 4.56147 9.00815 4.79988 9.08265 6.00685Z" fill="#3F6AC9"/>
<path d="M9.08265 6.00685C9.23166 8.06316 9.42537 8.95721 9.87239 9.47874C10.5727 10.3132 10.826 10.3728 14.0148 10.3728C17.2185 10.3728 17.4569 10.3281 18.1722 9.47874C18.6639 8.88271 18.8129 8.27177 18.947 6.23036C19.0066 5.1575 19.1109 4.56147 19.2152 4.56147C19.5728 4.56147 24.356 5.30651 24.6093 5.41081C25.1607 5.60452 25.7418 6.14095 26.0249 6.67738C26.2931 7.19891 26.308 7.70554 26.308 17.4805C26.308 23.113 26.2484 27.8068 26.1888 27.8962C26.01 28.1793 19.9901 33.6181 19.8709 33.6181C19.7964 33.6181 19.7516 30.5336 19.7516 26.7637V19.9093L21.808 18.5533C22.9255 17.8083 23.9388 17.0931 24.0431 16.959C24.2666 16.6609 24.2964 12.2801 24.0729 11.848C23.9835 11.699 23.7749 11.5649 23.6259 11.5649C23.313 11.5649 15.7135 15.7222 15.2516 16.1394C15.0132 16.348 14.9834 16.7056 14.9834 19.3878C14.9834 22.2637 14.9685 22.4276 14.6556 22.8895C14.2085 23.5302 14.0744 23.56 13.7168 23.0683C13.4486 22.6958 13.4188 22.3978 13.3741 19.5219C13.3294 16.7801 13.2996 16.3331 13.0761 16.1394C12.644 15.7669 4.95512 11.5649 4.6869 11.5649C4.16537 11.5649 4.09087 11.9076 4.13557 14.4854L4.18028 17.0037L6.11738 18.3149C7.19024 19.0302 8.1737 19.7156 8.32271 19.8348C8.56112 20.0434 8.57602 20.565 8.57602 26.8382C8.57602 31.4426 8.53132 33.6181 8.42701 33.6181C8.30781 33.6181 7.16044 32.6644 6.63891 32.128C6.59421 32.0833 5.55115 31.1297 4.31438 30.0121L2.06436 27.9707L1.97495 21.1461C1.82594 11.4755 1.84084 8.00356 2.03456 7.31812C2.25807 6.52838 2.7796 5.85784 3.43523 5.54492C3.85246 5.33631 7.57767 4.66577 8.73993 4.57637C8.94854 4.56147 9.00815 4.79988 9.08265 6.00685Z" fill="#3F6AC9"/>
</svg>
