<svg width="28" height="30" viewBox="0 0 28 30" fill="none" xmlns="http://www.w3.org/2000/svg">
<g filter="url(#filter0_d_1029_214)">
<path fill-rule="evenodd" clip-rule="evenodd" d="M14.0015 2.25C10.1754 2.25 6.52505 4.51303 4.99714 8.08468C3.57518 11.4086 4.34496 14.2373 5.94771 16.6595C7.26177 18.6454 9.17835 20.4178 10.9074 22.0168L10.9082 22.0175C11.2377 22.3222 11.5603 22.6206 11.8707 22.9129L11.8723 22.9145C12.4473 23.4528 13.2112 23.75 14.0015 23.75C14.7919 23.75 15.5558 23.4528 16.1308 22.9144C16.4243 22.6396 16.7286 22.3592 17.039 22.0732C18.7869 20.4627 20.7304 18.672 22.0582 16.6609C23.6591 14.2362 24.4261 11.4045 23.0059 8.08468C21.478 4.51303 17.8277 2.25 14.0015 2.25ZM14 8C11.7909 8 10 9.79086 10 12C10 14.2091 11.7909 16 14 16C16.2091 16 18 14.2091 18 12C18 9.79086 16.2091 8 14 8Z" fill="#3F6AC9"/>
</g>
<defs>
<filter id="filter0_d_1029_214" x="0.25" y="0.25" width="27.5027" height="29.5" filterUnits="userSpaceOnUse" color-interpolation-filters="sRGB">
<feFlood flood-opacity="0" result="BackgroundImageFix"/>
<feColorMatrix in="SourceAlpha" type="matrix" values="0 0 0 0 0 0 0 0 0 0 0 0 0 0 0 0 0 0 127 0" result="hardAlpha"/>
<feOffset dy="2"/>
<feGaussianBlur stdDeviation="2"/>
<feComposite in2="hardAlpha" operator="out"/>
<feColorMatrix type="matrix" values="0 0 0 0 0 0 0 0 0 0 0 0 0 0 0 0 0 0 0.25 0"/>
<feBlend mode="normal" in2="BackgroundImageFix" result="effect1_dropShadow_1029_214"/>
<feBlend mode="normal" in="SourceGraphic" in2="effect1_dropShadow_1029_214" result="shape"/>
</filter>
</defs>
</svg>
