<svg width="28" height="33" viewBox="0 0 28 33" fill="none" xmlns="http://www.w3.org/2000/svg">
<path d="M17.8294 2.2171C17.5761 5.19727 17.5314 5.43568 17.0993 5.838C16.7417 6.16582 16.6523 6.18073 14.1787 6.18073C12.7781 6.18073 11.4817 6.13602 11.3029 6.09132C10.677 5.92741 10.5131 5.42078 10.2896 2.81314C10.1704 1.44226 10.0363 0.294895 10.0065 0.265095C9.9767 0.22039 8.51642 0.3992 6.75812 0.652512C4.21008 1.03993 3.42033 1.20384 2.7796 1.53166C1.81104 2.00849 1.0809 2.97705 0.842489 4.09461C0.589175 5.25687 0.618976 24.9111 0.87229 25.4028C0.976596 25.6114 2.7945 27.3697 4.92532 29.3068C7.93529 32.0635 8.88894 32.8532 9.18696 32.8532C9.41047 32.8532 9.63398 32.7489 9.67868 32.6148C9.81279 32.2721 9.78299 16.4176 9.64888 16.209C9.58928 16.1047 8.59092 15.4043 7.44356 14.6444L5.37234 13.2586L5.32764 11.7983C5.29784 11.0086 5.32764 10.353 5.38724 10.353C5.44685 10.353 6.95183 11.1576 8.75483 12.156L12.0032 13.9441L12.0181 16.06C12.0181 17.2222 12.0628 18.6527 12.1224 19.2339C12.2267 20.2024 12.2863 20.3514 12.9718 21.2008C13.985 22.4524 14.1489 22.4822 14.9685 21.5882C16.2052 20.2322 16.1754 20.3216 16.1754 17.0434C16.1754 14.7636 16.2202 14.0782 16.3841 13.9441C16.5778 13.7801 22.7318 10.353 22.8361 10.353C22.8659 10.353 22.8808 11.0086 22.8808 11.8132V13.2884L20.7351 14.7189C18.9917 15.8663 18.5894 16.2239 18.5149 16.5666C18.3808 17.2222 18.4404 32.138 18.5745 32.5105C18.8278 33.1959 19.3344 32.9426 21.2715 31.1694C22.2848 30.2605 23.7153 28.9641 24.4454 28.3085C25.1756 27.6528 26.159 26.7588 26.6358 26.3118L27.5001 25.5071V14.853C27.5001 7.11948 27.4554 4.04991 27.3213 3.61778C27.0978 2.84294 26.1739 1.81478 25.3842 1.44226C24.9967 1.26345 23.6706 0.995234 22.0613 0.74192C20.5861 0.53331 19.0662 0.294895 18.6937 0.235291L17.9934 0.116085L17.8294 2.2171ZM9.08265 3.00685C9.23166 5.06316 9.42537 5.95721 9.87239 6.47874C10.5727 7.31319 10.826 7.37279 14.0148 7.37279C17.2185 7.37279 17.4569 7.32809 18.1722 6.47874C18.6639 5.88271 18.8129 5.27177 18.947 3.23036C19.0066 2.1575 19.1109 1.56147 19.2152 1.56147C19.5728 1.56147 24.356 2.30651 24.6093 2.41081C25.1607 2.60452 25.7418 3.14095 26.0249 3.67738C26.2931 4.19891 26.308 4.70554 26.308 14.4805C26.308 20.113 26.2484 24.8068 26.1888 24.8962C26.01 25.1793 19.9901 30.6181 19.8709 30.6181C19.7964 30.6181 19.7516 27.5336 19.7516 23.7637V16.9093L21.808 15.5533C22.9255 14.8083 23.9388 14.0931 24.0431 13.959C24.2666 13.6609 24.2964 9.2801 24.0729 8.84797C23.9835 8.69896 23.7749 8.56486 23.6259 8.56486C23.313 8.56486 15.7135 12.7222 15.2516 13.1394C15.0132 13.348 14.9834 13.7056 14.9834 16.3878C14.9834 19.2637 14.9685 19.4276 14.6556 19.8895C14.2085 20.5302 14.0744 20.56 13.7168 20.0683C13.4486 19.6958 13.4188 19.3978 13.3741 16.5219C13.3294 13.7801 13.2996 13.3331 13.0761 13.1394C12.644 12.7669 4.95512 8.56486 4.6869 8.56486C4.16537 8.56486 4.09087 8.90758 4.13557 11.4854L4.18028 14.0037L6.11738 15.3149C7.19024 16.0302 8.1737 16.7156 8.32271 16.8348C8.56112 17.0434 8.57602 17.565 8.57602 23.8382C8.57602 28.4426 8.53132 30.6181 8.42701 30.6181C8.30781 30.6181 7.16044 29.6644 6.63891 29.128C6.59421 29.0833 5.55115 28.1297 4.31438 27.0121L2.06436 24.9707L1.97495 18.1461C1.82594 8.47545 1.84084 5.00356 2.03456 4.31812C2.25807 3.52838 2.7796 2.85784 3.43523 2.54492C3.85246 2.33631 7.57767 1.66577 8.73993 1.57637C8.94854 1.56147 9.00815 1.79988 9.08265 3.00685Z" fill="#3F6AC9"/>
<path d="M9.08265 3.00685C9.23166 5.06316 9.42537 5.95721 9.87239 6.47874C10.5727 7.31319 10.826 7.37279 14.0148 7.37279C17.2185 7.37279 17.4569 7.32809 18.1722 6.47874C18.6639 5.88271 18.8129 5.27177 18.947 3.23036C19.0066 2.1575 19.1109 1.56147 19.2152 1.56147C19.5728 1.56147 24.356 2.30651 24.6093 2.41081C25.1607 2.60452 25.7418 3.14095 26.0249 3.67738C26.2931 4.19891 26.308 4.70554 26.308 14.4805C26.308 20.113 26.2484 24.8068 26.1888 24.8962C26.01 25.1793 19.9901 30.6181 19.8709 30.6181C19.7964 30.6181 19.7516 27.5336 19.7516 23.7637V16.9093L21.808 15.5533C22.9255 14.8083 23.9388 14.0931 24.0431 13.959C24.2666 13.6609 24.2964 9.2801 24.0729 8.84797C23.9835 8.69896 23.7749 8.56486 23.6259 8.56486C23.313 8.56486 15.7135 12.7222 15.2516 13.1394C15.0132 13.348 14.9834 13.7056 14.9834 16.3878C14.9834 19.2637 14.9685 19.4276 14.6556 19.8895C14.2085 20.5302 14.0744 20.56 13.7168 20.0683C13.4486 19.6958 13.4188 19.3978 13.3741 16.5219C13.3294 13.7801 13.2996 13.3331 13.0761 13.1394C12.644 12.7669 4.95512 8.56486 4.6869 8.56486C4.16537 8.56486 4.09087 8.90758 4.13557 11.4854L4.18028 14.0037L6.11738 15.3149C7.19024 16.0302 8.1737 16.7156 8.32271 16.8348C8.56112 17.0434 8.57602 17.565 8.57602 23.8382C8.57602 28.4426 8.53132 30.6181 8.42701 30.6181C8.30781 30.6181 7.16044 29.6644 6.63891 29.128C6.59421 29.0833 5.55115 28.1297 4.31438 27.0121L2.06436 24.9707L1.97495 18.1461C1.82594 8.47545 1.84084 5.00356 2.03456 4.31812C2.25807 3.52838 2.7796 2.85784 3.43523 2.54492C3.85246 2.33631 7.57767 1.66577 8.73993 1.57637C8.94854 1.56147 9.00815 1.79988 9.08265 3.00685Z" fill="#3F6AC9"/>
</svg>
