<svg width="26" height="26" viewBox="0 0 26 26" fill="none" xmlns="http://www.w3.org/2000/svg">
<g filter="url(#filter0_d_1_988)">
<path d="M9.64223 21.7084L9.23261 18.5884C9.01073 18.5071 8.80165 18.4096 8.60538 18.2959C8.4091 18.1821 8.21709 18.0602 8.02935 17.9302L4.98281 19.149L2.16669 14.5177L4.80361 12.6165C4.78654 12.5027 4.77801 12.3931 4.77801 12.2874V11.6293C4.77801 11.5237 4.78654 11.414 4.80361 11.3002L2.16669 9.399L4.98281 4.76775L8.02935 5.9865C8.21709 5.8565 8.41337 5.73462 8.61818 5.62087C8.82299 5.50712 9.0278 5.40962 9.23261 5.32837L9.64223 2.20837H15.2745L15.6841 5.32837C15.906 5.40962 16.1151 5.50712 16.3113 5.62087C16.5076 5.73462 16.6996 5.8565 16.8874 5.9865L19.9339 4.76775L22.75 9.399L20.1131 11.3002C20.1302 11.414 20.1387 11.5237 20.1387 11.6293V12.2874C20.1387 12.3931 20.1216 12.5027 20.0875 12.6165L22.7244 14.5177L19.9083 19.149L16.8874 17.9302C16.6996 18.0602 16.5033 18.1821 16.2985 18.2959C16.0937 18.4096 15.8889 18.5071 15.6841 18.5884L15.2745 21.7084H9.64223ZM12.5096 15.3709C13.4995 15.3709 14.3443 15.0377 15.0441 14.3715C15.7438 13.7052 16.0937 12.9009 16.0937 11.9584C16.0937 11.0159 15.7438 10.2115 15.0441 9.54525C14.3443 8.879 13.4995 8.54587 12.5096 8.54587C11.5026 8.54587 10.6535 8.879 9.96224 9.54525C9.27101 10.2115 8.92539 11.0159 8.92539 11.9584C8.92539 12.9009 9.27101 13.7052 9.96224 14.3715C10.6535 15.0377 11.5026 15.3709 12.5096 15.3709Z" fill="#1C1B1F"/>
</g>
<defs>
<filter id="filter0_d_1_988" x="-1.83331" y="0.208374" width="28.5833" height="27.5" filterUnits="userSpaceOnUse" color-interpolation-filters="sRGB">
<feFlood flood-opacity="0" result="BackgroundImageFix"/>
<feColorMatrix in="SourceAlpha" type="matrix" values="0 0 0 0 0 0 0 0 0 0 0 0 0 0 0 0 0 0 127 0" result="hardAlpha"/>
<feOffset dy="2"/>
<feGaussianBlur stdDeviation="2"/>
<feComposite in2="hardAlpha" operator="out"/>
<feColorMatrix type="matrix" values="0 0 0 0 0 0 0 0 0 0 0 0 0 0 0 0 0 0 0.25 0"/>
<feBlend mode="normal" in2="BackgroundImageFix" result="effect1_dropShadow_1_988"/>
<feBlend mode="normal" in="SourceGraphic" in2="effect1_dropShadow_1_988" result="shape"/>
</filter>
</defs>
</svg>
