<svg width="48" height="48" viewBox="0 0 48 48" fill="none" xmlns="http://www.w3.org/2000/svg">
<path d="M24.27 2.03564C23.2965 2.27442 23.2598 2.42136 23.2598 6.35209C23.2598 9.75015 23.2781 10.0073 23.6271 10.3563C24.1047 10.8339 25.0966 10.8339 25.666 10.3747C26.1068 10.0257 26.1068 9.98894 26.1068 6.42556C26.1068 3.08261 26.0884 2.80709 25.7394 2.47647C25.317 2.07237 24.7843 1.92543 24.27 2.03564Z" fill="black"/>
<path d="M29.156 8.22539C28.8438 11.899 28.7887 12.1929 28.256 12.6888C27.8152 13.0929 27.705 13.1113 24.6559 13.1113C22.9293 13.1113 21.3313 13.0562 21.1109 13.001C20.3394 12.799 20.1374 12.1745 19.8619 8.96011C19.7149 7.27026 19.5496 5.85594 19.5129 5.8192C19.4761 5.7641 17.6761 5.98451 15.5087 6.29676C12.3678 6.77433 11.3943 6.97638 10.6045 7.38047C9.41054 7.96824 8.51052 9.16216 8.21663 10.5397C7.90438 11.9724 7.94111 36.1997 8.25337 36.8058C8.38194 37.063 10.6228 39.2304 13.2494 41.6182C16.9597 45.0163 18.1353 45.9898 18.5026 45.9898C18.7782 45.9898 19.0537 45.8612 19.1088 45.6959C19.2741 45.2734 19.2374 25.73 19.0721 25.4728C18.9986 25.3443 17.7679 24.481 16.3536 23.5442L13.8005 21.836L13.7454 20.0359C13.7086 19.0624 13.7454 18.2543 13.8188 18.2543C13.8923 18.2543 15.7475 19.2461 17.97 20.4768L21.9742 22.6809L21.9925 25.2892C21.9925 26.7219 22.0477 28.4852 22.1211 29.2015C22.2497 30.3954 22.3232 30.5791 23.1681 31.6261C24.4171 33.169 24.6192 33.2057 25.6294 32.1037C27.1539 30.4322 27.1172 30.5424 27.1172 26.5014C27.1172 23.6912 27.1723 22.8462 27.3743 22.6809C27.6131 22.4789 35.1991 18.2543 35.3276 18.2543C35.3644 18.2543 35.3827 19.0624 35.3827 20.0543V21.8727L32.7378 23.6361C30.5887 25.0504 30.0928 25.4912 30.0009 25.9137C29.8356 26.7219 29.9091 45.1081 30.0744 45.5673C30.3867 46.4122 31.0112 46.1 33.399 43.9142C34.648 42.7938 36.4113 41.1958 37.3114 40.3876C38.2114 39.5794 39.4237 38.4773 40.0114 37.9263L41.0768 36.9344V23.8014C41.0768 14.2684 41.0217 10.4846 40.8564 9.95198C40.5809 8.99685 39.442 7.72946 38.4685 7.27026C37.991 7.04985 36.3562 6.71923 34.3725 6.40697C32.5541 6.14982 30.6806 5.85594 30.2214 5.78247L29.3581 5.63552L29.156 8.22539ZM18.3741 9.19889C18.5578 11.7337 18.7965 12.8357 19.3476 13.4786C20.2109 14.5072 20.5231 14.5807 24.4538 14.5807C28.4029 14.5807 28.6968 14.5256 29.5785 13.4786C30.1846 12.7439 30.3683 11.9908 30.5336 9.47441C30.6071 8.15192 30.7357 7.41721 30.8642 7.41721C31.3051 7.41721 37.2012 8.3356 37.5134 8.46418C38.193 8.70296 38.9094 9.3642 39.2584 10.0254C39.589 10.6683 39.6074 11.2928 39.6074 23.3422C39.6074 30.2852 39.5339 36.0711 39.4604 36.1813C39.24 36.5303 31.8194 43.2346 31.6724 43.2346C31.5806 43.2346 31.5255 39.4324 31.5255 34.7854V26.3361L34.0603 24.6647C35.4378 23.7463 36.6869 22.8646 36.8154 22.6993C37.091 22.3319 37.1277 16.9318 36.8522 16.3991C36.742 16.2154 36.4848 16.0501 36.3011 16.0501C35.9154 16.0501 26.5478 21.1748 25.9784 21.6891C25.6845 21.9462 25.6478 22.387 25.6478 25.6933C25.6478 29.2383 25.6294 29.4403 25.2437 30.0097C24.6926 30.7995 24.5273 30.8363 24.0865 30.2301C23.7559 29.7709 23.7191 29.4036 23.664 25.8586C23.6089 22.4789 23.5722 21.9278 23.2967 21.6891C22.764 21.2299 13.2862 16.0501 12.9555 16.0501C12.3127 16.0501 12.2208 16.4726 12.2759 19.6502L12.331 22.7544L14.7189 24.3708C16.0414 25.2524 17.2536 26.0974 17.4373 26.2443C17.7312 26.5014 17.7496 27.1443 17.7496 34.8772C17.7496 40.5529 17.6945 43.2346 17.5659 43.2346C17.4189 43.2346 16.0046 42.059 15.3617 41.3978C15.3066 41.3427 14.0209 40.1672 12.4963 38.7896L9.7228 36.2732L9.61259 27.8607C9.42891 15.9399 9.44728 11.6602 9.68606 10.8153C9.96158 9.84177 10.6045 9.01521 11.4126 8.62949C11.9269 8.37234 16.5189 7.54578 17.9516 7.43558C18.2088 7.41721 18.2822 7.71109 18.3741 9.19889Z" fill="#080808"/>
<path d="M18.3741 9.19889C18.5578 11.7337 18.7965 12.8357 19.3476 13.4786C20.2109 14.5072 20.5231 14.5807 24.4538 14.5807C28.4029 14.5807 28.6968 14.5256 29.5785 13.4786C30.1846 12.7439 30.3683 11.9908 30.5336 9.47441C30.6071 8.15192 30.7357 7.41721 30.8642 7.41721C31.3051 7.41721 37.2012 8.3356 37.5134 8.46418C38.193 8.70296 38.9094 9.3642 39.2584 10.0254C39.589 10.6683 39.6074 11.2928 39.6074 23.3422C39.6074 30.2852 39.5339 36.0711 39.4604 36.1813C39.24 36.5303 31.8194 43.2346 31.6724 43.2346C31.5806 43.2346 31.5255 39.4324 31.5255 34.7854V26.3361L34.0603 24.6647C35.4378 23.7463 36.6869 22.8646 36.8154 22.6993C37.091 22.3319 37.1277 16.9318 36.8522 16.3991C36.742 16.2154 36.4848 16.0501 36.3011 16.0501C35.9154 16.0501 26.5478 21.1748 25.9784 21.6891C25.6845 21.9462 25.6478 22.387 25.6478 25.6933C25.6478 29.2383 25.6294 29.4403 25.2437 30.0097C24.6926 30.7995 24.5273 30.8363 24.0865 30.2301C23.7559 29.7709 23.7191 29.4036 23.664 25.8586C23.6089 22.4789 23.5722 21.9278 23.2967 21.6891C22.764 21.2299 13.2862 16.0501 12.9555 16.0501C12.3127 16.0501 12.2208 16.4726 12.2759 19.6502L12.331 22.7544L14.7189 24.3708C16.0414 25.2524 17.2536 26.0974 17.4373 26.2443C17.7312 26.5014 17.7496 27.1443 17.7496 34.8772C17.7496 40.5529 17.6945 43.2346 17.5659 43.2346C17.4189 43.2346 16.0046 42.059 15.3617 41.3978C15.3066 41.3427 14.0209 40.1672 12.4963 38.7896L9.7228 36.2732L9.61259 27.8607C9.42891 15.9399 9.44728 11.6602 9.68606 10.8153C9.96158 9.84177 10.6045 9.01521 11.4126 8.62949C11.9269 8.37234 16.5189 7.54578 17.9516 7.43558C18.2088 7.41721 18.2822 7.71109 18.3741 9.19889Z" fill="#080808"/>
</svg>
