<svg width="32" height="27" viewBox="0 0 32 27" fill="none" xmlns="http://www.w3.org/2000/svg">
<g filter="url(#filter0_d_910_9063)">
<path d="M11.5034 13.1474C11.2163 13.3013 10.9349 13.4624 10.7281 13.5903C10.2335 13.8795 9.30191 14.4241 8.62889 15.1082C8.19456 15.5497 7.6236 16.2837 7.51733 17.2933C7.48451 17.6051 7.49934 17.9036 7.55304 18.1871C7.60678 18.4709 7.63366 18.6128 7.56186 18.6872C7.49006 18.7616 7.37042 18.7434 7.13114 18.707C6.10732 18.5512 5.41543 17.9931 4.84764 17.3845C4.42308 16.9295 4.20379 16.4061 4.25817 15.8464C4.30924 15.3208 4.59019 14.8976 4.87118 14.5882C5.31466 14.0998 5.96834 13.686 6.35981 13.4381C6.44345 13.3852 6.51514 13.3398 6.57023 13.3029C8.04765 12.3132 9.8097 12.0212 11.455 12.427C11.843 12.5226 12.0369 12.5704 12.0541 12.7068C12.0712 12.8431 11.8819 12.9445 11.5034 13.1474Z" fill="#3F6AC9"/>
<path d="M10.4874 5.28631C10.6771 5.31484 10.772 5.3291 10.8207 5.4079C10.8694 5.48671 10.8355 5.59136 10.7675 5.80068C10.5939 6.33583 10.5 6.90695 10.5 7.5C10.5 8.73995 10.9103 9.88407 11.6026 10.804C11.7347 10.9795 11.8007 11.0672 11.7803 11.1575C11.76 11.2478 11.6751 11.2922 11.5053 11.3811C11.0553 11.6167 10.5432 11.75 10 11.75C8.20507 11.75 6.75 10.2949 6.75 8.5C6.75 6.70507 8.20507 5.25 10 5.25C10.1657 5.25 10.3284 5.26239 10.4874 5.28631Z" fill="#3F6AC9"/>
<path d="M20.4971 13.1474C20.7842 13.3013 21.0656 13.4624 21.2723 13.5903C21.767 13.8795 22.6986 14.4241 23.3716 15.1082C23.8059 15.5497 24.3769 16.2837 24.4832 17.2933C24.516 17.6051 24.5011 17.9036 24.4474 18.1871C24.3937 18.4709 24.3668 18.6128 24.4386 18.6872C24.5104 18.7616 24.6301 18.7434 24.8694 18.707C25.8932 18.5512 26.5851 17.9931 27.1528 17.3845C27.5774 16.9295 27.7967 16.4061 27.7423 15.8464C27.6912 15.3208 27.4103 14.8976 27.1293 14.5882C26.6858 14.0998 26.0322 13.686 25.6407 13.4381C25.557 13.3852 25.4853 13.3398 25.4303 13.3029C23.9528 12.3132 22.1908 12.0212 20.5454 12.427C20.1575 12.5226 19.9636 12.5704 19.9464 12.7068C19.9293 12.8431 20.1186 12.9445 20.4971 13.1474Z" fill="#3F6AC9"/>
<path d="M20.3979 10.804C20.2658 10.9795 20.1998 11.0672 20.2202 11.1575C20.2405 11.2478 20.3254 11.2922 20.4952 11.3811C20.9452 11.6167 21.4573 11.75 22.0005 11.75C23.7954 11.75 25.2505 10.2949 25.2505 8.5C25.2505 6.70507 23.7954 5.25 22.0005 5.25C21.8348 5.25 21.6721 5.26239 21.5131 5.28631C21.3234 5.31484 21.2285 5.3291 21.1798 5.4079C21.1311 5.48671 21.165 5.59136 21.233 5.80068C21.4066 6.33583 21.5005 6.90695 21.5005 7.5C21.5005 8.73995 21.0902 9.88407 20.3979 10.804Z" fill="#3F6AC9"/>
<path d="M11.6915 14.4733C14.3292 12.8422 17.675 12.8422 20.3127 14.4733C20.3905 14.5214 20.489 14.579 20.6022 14.6452C21.1145 14.945 21.9276 15.4208 22.4826 15.9849C22.8311 16.3391 23.1787 16.8221 23.242 17.4242C23.3099 18.0683 23.0365 18.6646 22.5149 19.1806C21.6533 20.033 20.5859 20.75 19.1865 20.75H12.8177C11.4183 20.75 10.3509 20.033 9.48932 19.1806C8.96775 18.6646 8.69435 18.0683 8.76215 17.4242C8.82553 16.8221 9.17313 16.3391 9.52165 15.9849C10.0766 15.4208 10.8897 14.945 11.402 14.6452C11.5152 14.579 11.6137 14.5214 11.6915 14.4733Z" fill="#3F6AC9"/>
<path d="M11.752 7.5C11.752 5.15279 13.6547 3.25 16.002 3.25C18.3492 3.25 20.252 5.15279 20.252 7.5C20.252 9.84721 18.3492 11.75 16.002 11.75C13.6547 11.75 11.752 9.84721 11.752 7.5Z" fill="#3F6AC9"/>
</g>
<defs>
<filter id="filter0_d_910_9063" x="0" y="-2" width="32" height="32" filterUnits="userSpaceOnUse" color-interpolation-filters="sRGB">
<feFlood flood-opacity="0" result="BackgroundImageFix"/>
<feColorMatrix in="SourceAlpha" type="matrix" values="0 0 0 0 0 0 0 0 0 0 0 0 0 0 0 0 0 0 127 0" result="hardAlpha"/>
<feOffset dy="2"/>
<feGaussianBlur stdDeviation="2"/>
<feComposite in2="hardAlpha" operator="out"/>
<feColorMatrix type="matrix" values="0 0 0 0 0 0 0 0 0 0 0 0 0 0 0 0 0 0 0.25 0"/>
<feBlend mode="normal" in2="BackgroundImageFix" result="effect1_dropShadow_910_9063"/>
<feBlend mode="normal" in="SourceGraphic" in2="effect1_dropShadow_910_9063" result="shape"/>
</filter>
</defs>
</svg>
