<svg width="147" height="138" viewBox="0 0 147 138" fill="none" xmlns="http://www.w3.org/2000/svg">
<g filter="url(#filter0_dd_910_8818)">
<path d="M108 69C108 75.2582 106.494 81.4244 103.609 86.978C100.724 92.5316 96.5453 97.3094 91.4252 100.908C86.3051 104.506 80.3942 106.82 74.1917 107.653C67.9893 108.486 61.6774 107.814 55.7892 105.694C49.901 103.574 44.6095 100.069 40.3614 95.4732C36.1134 90.8777 33.0336 85.3274 31.3823 79.2911C29.7309 73.2547 29.5564 66.9096 30.8736 60.7916C32.1908 54.6736 34.9609 48.9625 38.95 44.1405L41.955 46.6264C38.3648 50.9662 35.8717 56.1063 34.6862 61.6124C33.5008 67.1186 33.6578 72.8292 35.144 78.2619C36.6303 83.6947 39.402 88.6899 43.2253 92.8259C47.0485 96.9619 51.8109 100.117 57.1103 102.025C62.4097 103.933 68.0903 104.537 73.6726 103.788C79.2548 103.038 84.5746 100.956 89.1827 97.7171C93.7908 94.4784 97.5518 90.1784 100.148 85.1802C102.745 80.182 104.1 74.6323 104.1 69H108Z" fill="#3F6AC9"/>
<path d="M38.0931 45.2142C43.0841 38.729 49.9887 33.978 57.8293 31.634C65.6699 29.2901 74.0491 29.4718 81.7807 32.1536C89.5122 34.8354 96.2043 39.8814 100.909 46.577C105.614 53.2726 108.094 61.2786 107.997 69.4615L104.098 69.4154C104.185 62.0508 101.953 54.8453 97.7184 48.8193C93.4839 42.7932 87.461 38.2519 80.5026 35.8383C73.5442 33.4247 66.0029 33.2611 58.9464 35.3706C51.8898 37.4802 45.6757 41.7561 41.1838 47.5928L38.0931 45.2142Z" fill="#3F6AC9"/>
</g>
<g filter="url(#filter1_di_910_8818)">
<circle cx="68.6" cy="68.6" r="28.6" fill="#F1EDE7"/>
</g>
<path d="M63.816 69.1952C63.517 69.3555 63.2239 69.5233 63.0085 69.6566C62.4933 69.9578 61.5228 70.5251 60.8218 71.2377C60.3694 71.6976 59.7746 72.4622 59.6639 73.5139C59.6297 73.8387 59.6452 74.1496 59.7011 74.4449C59.7571 74.7405 59.7851 74.8883 59.7103 74.9658C59.6355 75.0433 59.5109 75.0244 59.2616 74.9865C58.1951 74.8242 57.4744 74.2428 56.883 73.6089C56.4407 73.1349 56.2123 72.5897 56.269 72.0067C56.3221 71.4592 56.6148 71.0183 56.9075 70.6961C57.3695 70.1873 58.0504 69.7563 58.4582 69.498C58.5453 69.4429 58.62 69.3956 58.6773 69.3572C60.2163 68.3263 62.0518 68.0221 63.7657 68.4448C64.1698 68.5444 64.3718 68.5942 64.3897 68.7363C64.4075 68.8782 64.2104 68.9839 63.816 69.1952Z" fill="#3F6AC9"/>
<path d="M62.7577 61.0066C62.9553 61.0363 63.0541 61.0511 63.1049 61.1332C63.1556 61.2153 63.1203 61.3243 63.0495 61.5424C62.8686 62.0998 62.7708 62.6947 62.7708 63.3125C62.7708 64.6041 63.1982 65.7959 63.9193 66.7542C64.0569 66.937 64.1257 67.0283 64.1045 67.1224C64.0833 67.2165 63.9949 67.2627 63.818 67.3553C63.3492 67.6007 62.8158 67.7396 62.25 67.7396C60.3803 67.7396 58.8646 66.2239 58.8646 64.3542C58.8646 62.4844 60.3803 60.9688 62.25 60.9688C62.4225 60.9688 62.5921 60.9817 62.7577 61.0066Z" fill="#3F6AC9"/>
<path d="M73.1845 69.1952C73.4836 69.3555 73.7767 69.5233 73.992 69.6566C74.5073 69.9578 75.4777 70.5251 76.1788 71.2377C76.6312 71.6976 77.226 72.4622 77.3367 73.5139C77.3708 73.8387 77.3553 74.1496 77.2994 74.4449C77.2435 74.7405 77.2154 74.8883 77.2902 74.9658C77.365 75.0433 77.4897 75.0244 77.739 74.9865C78.8054 74.8242 79.5262 74.2428 80.1175 73.6089C80.5598 73.1349 80.7882 72.5897 80.7316 72.0067C80.6783 71.4592 80.3857 71.0183 80.093 70.6961C79.6311 70.1873 78.9502 69.7563 78.5424 69.498C78.4552 69.4429 78.3805 69.3956 78.3232 69.3572C76.7842 68.3263 74.9488 68.0221 73.2348 68.4448C72.8307 68.5444 72.6288 68.5942 72.6108 68.7363C72.593 68.8782 72.7902 68.9839 73.1845 69.1952Z" fill="#3F6AC9"/>
<path d="M73.0811 66.7542C72.9434 66.937 72.8747 67.0283 72.8959 67.1224C72.9171 67.2165 73.0055 67.2627 73.1824 67.3553C73.6512 67.6007 74.1846 67.7396 74.7504 67.7396C76.6201 67.7396 78.1358 66.2239 78.1358 64.3542C78.1358 62.4844 76.6201 60.9688 74.7504 60.9688C74.5778 60.9688 74.4083 60.9817 74.2427 61.0066C74.0451 61.0363 73.9463 61.0511 73.8955 61.1332C73.8448 61.2153 73.8801 61.3243 73.9509 61.5424C74.1318 62.0998 74.2296 62.6947 74.2296 63.3125C74.2296 64.6041 73.8022 65.7959 73.0811 66.7542Z" fill="#3F6AC9"/>
<path d="M64.0119 70.5764C66.7596 68.8773 70.2448 68.8773 72.9924 70.5764C73.0734 70.6265 73.176 70.6865 73.294 70.7554C73.8276 71.0677 74.6746 71.5633 75.2527 72.1509C75.6157 72.5199 75.9778 73.023 76.0438 73.6502C76.1145 74.3212 75.8297 74.9423 75.2864 75.4798C74.3889 76.3677 73.277 77.1146 71.8193 77.1146H65.1851C63.7274 77.1146 62.6156 76.3677 61.718 75.4798C61.1747 74.9423 60.8899 74.3212 60.9606 73.6502C61.0266 73.023 61.3887 72.5199 61.7517 72.1509C62.3297 71.5633 63.1768 71.0677 63.7104 70.7554C63.8283 70.6865 63.9309 70.6265 64.0119 70.5764Z" fill="#3F6AC9"/>
<path d="M64.075 63.3125C64.075 60.8675 66.057 58.8854 68.5021 58.8854C70.9471 58.8854 72.9292 60.8675 72.9292 63.3125C72.9292 65.7575 70.9471 67.7396 68.5021 67.7396C66.057 67.7396 64.075 65.7575 64.075 63.3125Z" fill="#3F6AC9"/>
<defs>
<filter id="filter0_dd_910_8818" x="-9" y="-10.56" width="156" height="156" filterUnits="userSpaceOnUse" color-interpolation-filters="sRGB">
<feFlood flood-opacity="0" result="BackgroundImageFix"/>
<feColorMatrix in="SourceAlpha" type="matrix" values="0 0 0 0 0 0 0 0 0 0 0 0 0 0 0 0 0 0 127 0" result="hardAlpha"/>
<feOffset dy="3.12"/>
<feGaussianBlur stdDeviation="3.9"/>
<feComposite in2="hardAlpha" operator="out"/>
<feColorMatrix type="matrix" values="0 0 0 0 0 0 0 0 0 0 0 0 0 0 0 0 0 0 0.2 0"/>
<feBlend mode="normal" in2="BackgroundImageFix" result="effect1_dropShadow_910_8818"/>
<feColorMatrix in="SourceAlpha" type="matrix" values="0 0 0 0 0 0 0 0 0 0 0 0 0 0 0 0 0 0 127 0" result="hardAlpha"/>
<feOffset dy="-1.56"/>
<feGaussianBlur stdDeviation="19.5"/>
<feComposite in2="hardAlpha" operator="out"/>
<feColorMatrix type="matrix" values="0 0 0 0 0 0 0 0 0 0 0 0 0 0 0 0 0 0 0.2 0"/>
<feBlend mode="normal" in2="effect1_dropShadow_910_8818" result="effect2_dropShadow_910_8818"/>
<feBlend mode="normal" in="SourceGraphic" in2="effect2_dropShadow_910_8818" result="shape"/>
</filter>
<filter id="filter1_di_910_8818" x="32.2" y="35.32" width="72.8" height="72.8" filterUnits="userSpaceOnUse" color-interpolation-filters="sRGB">
<feFlood flood-opacity="0" result="BackgroundImageFix"/>
<feColorMatrix in="SourceAlpha" type="matrix" values="0 0 0 0 0 0 0 0 0 0 0 0 0 0 0 0 0 0 127 0" result="hardAlpha"/>
<feOffset dy="3.12"/>
<feGaussianBlur stdDeviation="3.9"/>
<feComposite in2="hardAlpha" operator="out"/>
<feColorMatrix type="matrix" values="0 0 0 0 0 0 0 0 0 0 0 0 0 0 0 0 0 0 0.2 0"/>
<feBlend mode="normal" in2="BackgroundImageFix" result="effect1_dropShadow_910_8818"/>
<feBlend mode="normal" in="SourceGraphic" in2="effect1_dropShadow_910_8818" result="shape"/>
<feColorMatrix in="SourceAlpha" type="matrix" values="0 0 0 0 0 0 0 0 0 0 0 0 0 0 0 0 0 0 127 0" result="hardAlpha"/>
<feOffset dy="-3.12"/>
<feGaussianBlur stdDeviation="3.9"/>
<feComposite in2="hardAlpha" operator="arithmetic" k2="-1" k3="1"/>
<feColorMatrix type="matrix" values="0 0 0 0 0 0 0 0 0 0 0 0 0 0 0 0 0 0 0.1 0"/>
<feBlend mode="normal" in2="shape" result="effect2_innerShadow_910_8818"/>
</filter>
</defs>
</svg>
