<svg width="28" height="30" viewBox="0 0 28 30" fill="none" xmlns="http://www.w3.org/2000/svg">
<g filter="url(#filter0_d_928_5689)">
<path d="M19.8063 15.8372C19.9226 15.9064 20.0663 15.9875 20.229 16.0793C20.9418 16.4814 22.0193 17.0893 22.7575 17.8118C23.2191 18.2637 23.6578 18.8592 23.7375 19.5888C23.8223 20.3646 23.4839 21.0927 22.8048 21.7396C21.6334 22.8556 20.2276 23.75 18.4093 23.75H9.59104C7.77274 23.75 6.36695 22.8556 5.1955 21.7396C4.51649 21.0927 4.17802 20.3646 4.26283 19.5888C4.34257 18.8592 4.78123 18.2637 5.2429 17.8118C5.98106 17.0893 7.05857 16.4814 7.77139 16.0793C7.93404 15.9875 8.07773 15.9064 8.19404 15.8372C11.7481 13.7209 16.2523 13.7209 19.8063 15.8372Z" fill="black"/>
<path d="M8.75024 7.5C8.75024 4.6005 11.1007 2.25 14.0003 2.25C16.8998 2.25 19.2503 4.6005 19.2503 7.5C19.2503 10.3995 16.8998 12.75 14.0003 12.75C11.1007 12.75 8.75024 10.3995 8.75024 7.5Z" fill="black"/>
</g>
<defs>
<filter id="filter0_d_928_5689" x="-2" y="-1" width="32" height="32" filterUnits="userSpaceOnUse" color-interpolation-filters="sRGB">
<feFlood flood-opacity="0" result="BackgroundImageFix"/>
<feColorMatrix in="SourceAlpha" type="matrix" values="0 0 0 0 0 0 0 0 0 0 0 0 0 0 0 0 0 0 127 0" result="hardAlpha"/>
<feOffset dy="2"/>
<feGaussianBlur stdDeviation="2"/>
<feComposite in2="hardAlpha" operator="out"/>
<feColorMatrix type="matrix" values="0 0 0 0 0 0 0 0 0 0 0 0 0 0 0 0 0 0 0.25 0"/>
<feBlend mode="normal" in2="BackgroundImageFix" result="effect1_dropShadow_928_5689"/>
<feBlend mode="normal" in="SourceGraphic" in2="effect1_dropShadow_928_5689" result="shape"/>
</filter>
</defs>
</svg>
