<svg width="271" height="153" viewBox="0 0 271 153" fill="none" xmlns="http://www.w3.org/2000/svg">
<path d="M240.634 118.521C239.197 119.479 237.042 119.479 235.606 118.521L224.113 110.859V134.802C224.113 136 222.676 137.197 220.521 137.197C218.366 137.197 216.93 136 216.93 134.802V110.859L205.437 118.521C204.718 119 203.641 119.239 202.923 119.239C201.845 119.239 201.127 119 200.409 118.521C198.972 117.563 198.972 116.126 200.409 115.169L218.007 103.436C218.366 103.197 218.725 102.957 219.085 102.957C219.803 102.718 220.88 102.718 221.958 102.957C222.317 102.957 222.676 103.197 223.035 103.436L240.634 115.169C242.07 116.126 242.07 117.563 240.634 118.521Z" fill="#3F6AC9"/>
<path d="M63.9296 47.8875C51.3592 47.8875 40.9437 41.1832 40.9437 32.5635C40.9437 24.1832 51.0001 17.479 63.9296 17.479C76.5001 17.479 86.5564 24.1832 86.5564 32.5635C86.5564 41.1832 76.5001 47.8875 63.9296 47.8875Z" fill="#3F6AC9"/>
<path d="M224.113 87.1549V7.1831C224.113 3.35211 219.444 0 213.338 0H10.7747C4.66902 0 0 3.35211 0 7.1831V115.169C0 119 4.66902 122.352 10.7747 122.352H171.317C173.113 139.352 194.662 153 220.521 153C247.817 153 270.085 138.155 270.085 119.958C269.725 102.718 249.613 88.3521 224.113 87.1549ZM7.1831 7.1831C7.1831 5.98592 8.61972 4.78873 10.7747 4.78873H213.338C215.493 4.78873 216.93 5.98592 216.93 7.1831V77.338L164.493 46.6901C163.056 45.9718 160.901 45.9718 159.824 46.6901L96.6127 85.9577L67.5211 66.8028C66.4437 66.0845 64.2887 65.8451 62.8521 66.5634L7.1831 93.6197V7.1831ZM220.521 148.211C197.176 148.211 178.5 135.521 178.5 119.958C178.5 104.394 197.535 91.7042 220.521 91.7042C243.866 91.7042 262.901 104.394 262.901 119.958C262.542 135.521 243.866 148.211 220.521 148.211Z" fill="#3F6AC9"/>
</svg>
